<svg xmlns="http://www.w3.org/2000/svg" width="200" height="200" viewBox="0 0 200 200">
  <defs>
    <pattern id="paw-pattern" patternUnits="userSpaceOnUse" width="100" height="100">
      <path fill="rgba(255, 182, 115, 0.05)" d="M30,15 C35,5 45,0 55,15 C65,30 55,45 30,45 C5,45 -5,30 5,15 C15,0 25,5 30,15 Z">
        <animateTransform 
          attributeName="transform" 
          type="rotate" 
          from="0 30 30" 
          to="360 30 30" 
          dur="120s" 
          repeatCount="indefinite" 
        />
      </path>
      <circle fill="rgba(255, 182, 115, 0.05)" cx="10" cy="5" r="5" />
      <circle fill="rgba(255, 182, 115, 0.05)" cx="50" cy="5" r="5" />
      <circle fill="rgba(255, 182, 115, 0.05)" cx="10" cy="35" r="5" />
      <circle fill="rgba(255, 182, 115, 0.05)" cx="50" cy="35" r="5" />
      
      <path fill="rgba(255, 158, 125, 0.05)" transform="translate(50, 50)" d="M30,15 C35,5 45,0 55,15 C65,30 55,45 30,45 C5,45 -5,30 5,15 C15,0 25,5 30,15 Z">
        <animateTransform 
          attributeName="transform" 
          type="rotate" 
          from="0 80 80" 
          to="-360 80 80" 
          dur="150s" 
          repeatCount="indefinite" 
        />
      </path>
      <circle fill="rgba(255, 158, 125, 0.05)" cx="60" cy="55" r="5" />
      <circle fill="rgba(255, 158, 125, 0.05)" cx="100" cy="55" r="5" />
      <circle fill="rgba(255, 158, 125, 0.05)" cx="60" cy="85" r="5" />
      <circle fill="rgba(255, 158, 125, 0.05)" cx="100" cy="85" r="5" />
    </pattern>
  </defs>
  
  <rect width="200" height="200" fill="url(#paw-pattern)" />
</svg> 